<svg width="30" height="30" viewBox="0 0 30 30" fill="none" xmlns="http://www.w3.org/2000/svg">
<path fill-rule="evenodd" clip-rule="evenodd" d="M23.3375 21.2162L26.7812 24.66L25.72 25.72L4.8125 4.8125L5.87125 3.75L9.44 7.31875C11.165 6.62875 13.04 6.25 15 6.25C21.01 6.25 26.215 9.81 28.75 15C27.5271 17.5141 25.6595 19.6591 23.3375 21.2162ZM10.6075 8.4875L12.6875 10.5675C13.6312 10.0742 14.7077 9.89498 15.7603 10.056C16.8129 10.2171 17.7866 10.71 18.5395 11.463C19.2925 12.2159 19.7854 13.1896 19.9465 14.2422C20.1075 15.2948 19.9283 16.3713 19.435 17.315L22.2537 20.1338C24.2212 18.8838 25.8838 17.13 27.06 15.0013C24.6075 10.5625 20.0425 7.75 15 7.75C13.5051 7.75094 12.0207 8.00016 10.6075 8.4875ZM18.2975 16.1775C18.5206 15.5534 18.5618 14.8788 18.4165 14.2321C18.2712 13.5855 17.9452 12.9934 17.4765 12.5247C17.0079 12.0561 16.4158 11.7301 15.7691 11.5848C15.1225 11.4394 14.4479 11.4807 13.8237 11.7037L18.2975 16.1775ZM20.56 22.6825C18.835 23.3725 16.96 23.7512 15 23.7512C8.99 23.7512 3.785 20.1912 1.25 15.0013C2.4729 12.4871 4.34052 10.3422 6.6625 8.785L7.74625 9.86875C5.73937 11.1492 4.08663 12.9137 2.94 15C5.3925 19.4375 9.9575 22.25 15 22.25C16.4949 22.2491 17.9793 21.9998 19.3925 21.5125L20.56 22.6825ZM10.5662 12.6875L11.7025 13.825C11.4794 14.4491 11.4382 15.1237 11.5835 15.7704C11.7288 16.417 12.0548 17.0091 12.5235 17.4778C12.9921 17.9464 13.5842 18.2724 14.2309 18.4177C14.8775 18.5631 15.5521 18.5218 16.1763 18.2987L17.3137 19.4338C16.3701 19.9271 15.2936 20.1063 14.241 19.9452C13.1884 19.7841 12.2147 19.2912 11.4617 18.5383C10.7088 17.7853 10.2159 16.8116 10.0548 15.759C9.89373 14.7064 10.0729 13.6312 10.5662 12.6875Z" fill="white"/>
</svg>
