<svg width="20" height="20" viewBox="0 0 20 20" fill="none" xmlns="http://www.w3.org/2000/svg">
<g id="language_network_globe_icon_149018 1" clip-path="url(#clip0_6_21)">
<path id="Vector" d="M10 0C4.47734 0 0 4.47734 0 10C0 15.5227 4.47734 20 10 20C15.5227 20 20 15.5227 20 10C20 4.47734 15.5227 0 10 0ZM18.7277 9.375H15.3652C15.3613 9.08672 15.3464 8.79896 15.3203 8.51172C15.2084 7.31036 14.91 6.13376 14.4359 5.02422C15.2196 4.87623 15.9931 4.67896 16.752 4.43359C17.9101 5.83415 18.601 7.56202 18.7277 9.375ZM6.91719 5.06133C7.73067 5.19981 8.5512 5.29318 9.375 5.34102V9.375H5.88555C5.88919 9.12917 5.90221 8.88411 5.92461 8.63984C6.04453 7.26758 6.44297 6.06016 6.91719 5.06133ZM10.625 1.61758C11.3579 2.34081 11.9979 3.15253 12.5301 4.03398C12.1348 4.07227 11.7357 4.09831 11.3328 4.11211C11.0984 4.1207 10.8625 4.125 10.625 4.125V1.61758ZM9.375 1.61758V4.08828C8.76979 4.0513 8.1625 3.98737 7.55312 3.89648C7.69961 3.65977 7.8457 3.44258 7.98555 3.24609C8.4 2.66365 8.86495 2.11884 9.375 1.61797V1.61758ZM9.375 10.625V14.6594C8.67188 14.7 7.96549 14.7749 7.25586 14.884C6.53164 13.4535 6.09401 12.0342 5.94297 10.6262L9.375 10.625ZM9.375 15.9113V18.125C8.84383 17.4663 8.35458 16.7748 7.91016 16.0547C8.39974 15.9893 8.88802 15.9415 9.375 15.9113ZM10.625 15.8723C10.8615 15.8723 11.0974 15.8766 11.3328 15.8852C11.6113 15.8949 11.8879 15.9117 12.1625 15.9332C11.6993 16.6972 11.1857 17.4294 10.625 18.125V15.8723ZM11.3777 14.6359C11.1275 14.6271 10.8766 14.6225 10.625 14.6223V10.625H14.057C13.912 11.9841 13.4986 13.3553 12.8168 14.7387C12.3423 14.6887 11.8626 14.6547 11.3777 14.6367V14.6359ZM10.625 9.375V5.37695C10.876 5.37695 11.127 5.3724 11.3777 5.36328C11.9793 5.34167 12.5732 5.29466 13.1594 5.22227C13.6558 6.29584 13.9655 7.44616 14.0754 8.62383C14.098 8.87383 14.1111 9.12422 14.1145 9.375H10.625ZM15.7734 3.42539C15.147 3.60286 14.5115 3.7463 13.8695 3.85508C13.6088 3.37921 13.3193 2.91963 13.0027 2.47891C12.7504 2.12734 12.5016 1.81484 12.2699 1.54648C13.5671 1.8941 14.7662 2.53717 15.7734 3.42539ZM7.73008 1.54727C7.49844 1.81719 7.24961 2.12891 6.99727 2.47969C6.72407 2.85974 6.47087 3.25376 6.23867 3.66016C5.65195 3.53594 5.06419 3.38724 4.47539 3.21406C5.43004 2.43429 6.5394 1.86616 7.73008 1.54727ZM3.44531 4.20352C4.18229 4.44258 4.91888 4.64518 5.65508 4.81133C5.12969 5.98306 4.79981 7.23294 4.67852 8.51133C4.65247 8.79779 4.6375 9.08555 4.63359 9.37461H1.27227C1.40614 7.45846 2.17019 5.64043 3.44531 4.20391V4.20352ZM1.27227 10.625H4.6875C4.82891 12.1167 5.25924 13.6141 5.97852 15.1172C5.12354 15.2987 4.27875 15.5251 3.44766 15.7957C2.17168 14.3595 1.4068 12.5414 1.27227 10.625ZM4.47539 16.7859C5.17852 16.5776 5.88164 16.4056 6.58477 16.2699C7.04416 17.0622 7.55598 17.8229 8.1168 18.5469C6.78173 18.2538 5.5344 17.6506 4.47578 16.7859H4.47539ZM11.8836 18.5469C12.4876 17.7679 13.0342 16.9461 13.5191 16.0879C14.2802 16.202 15.0331 16.3646 15.7734 16.5746C14.6652 17.5515 13.3266 18.2302 11.8836 18.5469ZM16.752 15.5664C15.8903 15.2879 15.0098 15.0715 14.1172 14.9188C14.7794 13.4839 15.1785 12.0526 15.3145 10.625H18.7277C18.601 12.438 17.9101 14.1658 16.752 15.5664Z" fill="white"/>
</g>
<defs>
<clipPath id="clip0_6_21">
<rect width="20" height="20" fill="white"/>
</clipPath>
</defs>
</svg>
