<svg width="50" height="50" viewBox="0 0 50 50" fill="none" xmlns="http://www.w3.org/2000/svg">
<g id="&#240;&#159;&#166;&#134; icon &#34;Games Valorant&#34;">
<path id="Vector" d="M48.2183 16.1445C47.9209 15.4235 47.5854 14.7172 47.212 14.0256C47.001 13.6331 46.778 13.2458 46.5429 12.8637C45.5279 11.2194 44.2908 9.66681 42.8316 8.20581C38.0509 3.42513 32.2795 1.03479 25.5174 1.03479C18.757 1.03479 12.9865 3.42513 8.20581 8.20581C3.42513 12.9865 1.03479 18.757 1.03479 25.5174C1.03479 32.2795 3.42513 38.0509 8.20581 42.8316C12.9865 47.6105 18.757 50 25.5174 50C32.2795 50 38.0509 47.6105 42.8316 42.8316C45.4648 40.1966 47.3728 37.2616 48.5554 34.0266C49.5185 31.3899 50 28.5535 50 25.5174C50 23.1884 49.7164 20.9762 49.1493 18.8806C49.0853 18.6438 49.0179 18.4086 48.947 18.1752C48.7344 17.4853 48.4914 16.8084 48.2183 16.1445Z" fill="black" fill-opacity="0.098039"/>
<path id="Vector_2" d="M48.2235 18.2582C48.1629 18.0213 48.0998 17.7862 48.0341 17.5528C47.9814 17.37 47.9261 17.1876 47.8681 17.0056C47.7827 16.7307 47.6919 16.4576 47.5958 16.186C47.2587 15.2333 46.8584 14.3057 46.395 13.4032C46.1945 13.0107 45.9818 12.6234 45.757 12.2413C44.6972 10.4431 43.3771 8.75305 41.7968 7.17102C38.0276 3.4018 33.642 1.11866 28.64 0.321593C27.7928 0.186732 26.9274 0.0942303 26.0439 0.0440893C25.5286 0.0146964 25.0082 0 24.4826 0C23.995 0 23.5126 0.0129675 23.0354 0.0389024C16.8958 0.357038 11.6076 2.73441 7.17102 7.17102C2.39034 11.9517 0 17.7222 0 24.4826C0 31.2447 2.39034 37.0161 7.17102 41.7968C10.103 44.7277 13.4072 46.7601 17.0834 47.8941C18.9693 48.4755 20.9533 48.8204 23.0354 48.9289C23.0423 48.9289 23.0493 48.9289 23.0562 48.9289C23.4763 48.9496 23.8999 48.9617 24.327 48.9652C24.3789 48.9652 24.4307 48.9652 24.4826 48.9652C25.0099 48.9652 25.5304 48.9514 26.0439 48.9237C26.1649 48.9168 26.2851 48.909 26.4044 48.9004C27.4435 48.826 28.4584 48.6929 29.4491 48.501C29.8572 48.4214 30.2618 48.3324 30.6629 48.2338C34.8332 47.1947 38.5445 45.049 41.7968 41.7968C44.3176 39.2742 46.1737 36.4767 47.365 33.4042C48.3246 30.9283 48.8528 28.2743 48.9496 25.4422C48.96 25.1241 48.9652 24.8042 48.9652 24.4826C48.9652 24.448 48.9652 24.4134 48.9652 24.3789C48.9652 24.3616 48.9652 24.3443 48.9652 24.327C48.9531 22.2072 48.7058 20.1843 48.2235 18.2582Z" fill="white"/>
<path id="Vector_3" d="M48.9496 25.4421C48.9571 25.2144 48.9614 24.9853 48.9626 24.7549L38.4641 14.2564L26.4199 29.2598L10.7371 14.0411L19.5679 36.7965L30.9352 48.1638C34.9951 47.1002 38.6156 44.9779 41.7968 41.7967C44.3176 39.2741 46.1737 36.4766 47.365 33.4042C48.3246 30.9282 48.8528 28.2742 48.9496 25.4421Z" fill="black" fill-opacity="0.2"/>
<path id="Vector_4" d="M10.7371 14.0412C10.68 13.9772 10.6126 13.9591 10.5348 13.9867C10.4553 14.0144 10.4155 14.0697 10.4155 14.1527V25.0973C10.4293 25.2823 10.489 25.4413 10.5944 25.5745L19.5679 36.7965C19.7149 36.985 19.9181 37.0792 20.1774 37.0792H28.8112C28.8872 37.0792 28.9417 37.0464 28.9745 36.9807C29.0109 36.915 29.0039 36.8536 28.9538 36.7965L10.7371 14.0412ZM38.5575 14.1398C38.5575 14.055 38.5177 13.998 38.4382 13.9686C38.3604 13.9427 38.293 13.9625 38.2359 14.0282L26.2799 28.9642C26.2315 29.0212 26.2237 29.0843 26.2566 29.1535C26.2894 29.2244 26.3439 29.2598 26.42 29.2598H35.0563C35.2932 29.2598 35.4903 29.1613 35.6476 28.9642L38.376 25.5563C38.497 25.4197 38.5575 25.2615 38.5575 25.0817V14.1398Z" fill="#101014"/>
</g>
</svg>
